<svg width="288" height="288" viewBox="0 0 288 288" fill="none" xmlns="http://www.w3.org/2000/svg">
<g filter="url(#filter0_d_774_267)">
<path fill-rule="evenodd" clip-rule="evenodd" d="M143.595 0C220.693 0 283.19 64.073 283.19 143.126C283.19 206.348 243.238 259.981 187.805 278.924C180.727 280.334 178.214 275.864 178.214 272.053C178.214 267.335 178.382 251.924 178.382 232.772C178.382 219.426 173.915 210.716 168.903 206.277C199.991 202.732 232.656 190.628 232.656 135.655C232.656 120.02 227.24 107.262 218.278 97.2393C219.73 93.6238 224.518 79.0659 216.91 59.3551C216.91 59.3551 205.212 55.52 178.563 74.0303C167.41 70.8614 155.46 69.2671 143.595 69.2112C131.729 69.2671 119.794 70.8614 108.654 74.0303C81.9777 55.52 70.2517 59.3551 70.2517 59.3551C62.6717 79.0659 67.4598 93.6238 68.8977 97.2393C59.9776 107.262 54.5194 120.02 54.5194 135.655C54.5194 190.488 87.1148 202.778 118.119 206.393C114.126 209.967 110.511 216.271 109.255 225.526C101.298 229.183 81.0842 235.513 68.6324 213.639C68.6324 213.639 61.2478 199.887 47.2325 198.882C47.2325 198.882 33.622 198.701 46.2833 207.579C46.2833 207.579 55.4267 211.976 61.7783 228.518C61.7783 228.518 69.9726 254.064 108.808 245.409C108.878 257.372 109.003 268.647 109.003 272.053C109.003 275.836 106.435 280.264 99.4689 278.937C43.9939 260.022 4 206.362 4 143.126C4 64.073 66.5106 0 143.595 0Z" fill="black"/>
</g>
<defs>
<filter id="filter0_d_774_267" x="0" y="0" width="287.19" height="287.19" filterUnits="userSpaceOnUse" color-interpolation-filters="sRGB">
<feFlood flood-opacity="0" result="BackgroundImageFix"/>
<feColorMatrix in="SourceAlpha" type="matrix" values="0 0 0 0 0 0 0 0 0 0 0 0 0 0 0 0 0 0 127 0" result="hardAlpha"/>
<feOffset dy="4"/>
<feGaussianBlur stdDeviation="2"/>
<feComposite in2="hardAlpha" operator="out"/>
<feColorMatrix type="matrix" values="0 0 0 0 0 0 0 0 0 0 0 0 0 0 0 0 0 0 0.25 0"/>
<feBlend mode="normal" in2="BackgroundImageFix" result="effect1_dropShadow_774_267"/>
<feBlend mode="normal" in="SourceGraphic" in2="effect1_dropShadow_774_267" result="shape"/>
</filter>
</defs>
</svg>
