<svg width="800" height="800" viewBox="0 0 800 800" fill="none" xmlns="http://www.w3.org/2000/svg">
<path d="M400 800C620.914 800 800 620.914 800 400C800 179.086 620.914 0 400 0C179.086 0 0 179.086 0 400C0 620.914 179.086 800 400 800Z" fill="white"/>
<g filter="url(#filter0_d_585_100)">
<path d="M400 200C345.682 200 338.882 200.234 317.546 201.172C296.209 202.188 281.751 205.549 269.011 210.473C255.881 215.553 244.705 222.431 233.529 233.529C222.352 244.627 215.553 255.803 210.473 269.011C205.549 281.751 202.188 296.288 201.172 317.546C200.156 338.882 200 345.682 200 400C200 454.318 200.234 461.118 201.172 482.454C202.188 503.712 205.549 518.249 210.473 530.989C215.553 544.119 222.431 555.295 233.529 566.471C244.627 577.569 255.803 584.447 269.011 589.527C281.751 594.451 296.288 597.812 317.546 598.828C338.882 599.844 345.682 600 400 600C454.318 600 461.118 599.766 482.454 598.828C503.712 597.812 518.249 594.451 530.989 589.527C544.119 584.447 555.295 577.569 566.471 566.471C577.569 555.373 584.447 544.197 589.527 530.989C594.451 518.249 597.812 503.712 598.828 482.454C599.844 461.118 600 454.318 600 400C600 345.682 599.766 338.882 598.828 317.546C597.812 296.288 594.451 281.751 589.527 269.011C584.447 255.881 577.569 244.705 566.471 233.529C555.373 222.431 544.197 215.553 530.989 210.473C518.249 205.549 503.712 202.188 482.454 201.172C461.118 200.234 454.318 200 400 200ZM400 236.03C453.38 236.03 459.789 236.264 480.891 237.202C500.43 238.14 510.981 241.344 518.015 244.158C527.394 247.753 534.037 252.13 541.071 259.086C548.027 266.12 552.403 272.763 555.998 282.141C558.734 289.175 562.016 299.726 562.876 319.265C563.814 340.367 564.048 346.698 564.048 400.156C564.048 453.615 563.814 459.945 562.798 481.047C561.782 500.586 558.499 511.137 555.764 518.171C552.013 527.55 547.792 534.193 540.758 541.227C533.802 548.183 527.003 552.56 517.78 556.155C510.746 558.89 500.039 562.173 480.5 563.032C459.242 563.97 452.989 564.205 399.453 564.205C345.916 564.205 339.664 563.97 318.406 562.954C298.867 561.938 288.159 558.656 281.125 555.92C271.669 552.169 265.104 547.948 258.148 540.914C251.114 533.959 246.659 527.159 243.142 517.937C240.406 510.903 237.124 500.195 236.108 480.656C235.326 459.633 235.092 453.146 235.092 399.922C235.092 346.62 235.326 340.133 236.108 318.875C237.124 299.336 240.328 288.628 243.142 281.594C246.659 272.059 251.114 265.572 258.148 258.538C265.104 251.583 271.669 247.05 281.125 243.533C288.159 240.797 298.632 237.515 318.171 236.499C339.429 235.717 345.682 235.483 399.218 235.483L400 236.03ZM400 297.304C343.259 297.304 297.225 343.337 297.225 400.078C297.225 456.819 343.259 502.853 400 502.853C456.741 502.853 502.775 456.819 502.775 400.078C502.775 343.337 456.741 297.304 400 297.304ZM400 466.745C363.189 466.745 333.333 436.889 333.333 400.078C333.333 363.267 363.189 333.412 400 333.412C436.811 333.412 466.667 363.267 466.667 400.078C466.667 436.889 436.811 466.745 400 466.745ZM530.832 293.318C530.832 306.604 520.047 317.311 506.839 317.311C493.552 317.311 482.845 306.526 482.845 293.318C482.845 280.109 493.63 269.324 506.839 269.324C520.047 269.246 530.832 280.031 530.832 293.318Z" fill="black"/>
</g>
<defs>
<filter id="filter0_d_585_100" x="195" y="200" width="440" height="445" filterUnits="userSpaceOnUse" color-interpolation-filters="sRGB">
<feFlood flood-opacity="0" result="BackgroundImageFix"/>
<feColorMatrix in="SourceAlpha" type="matrix" values="0 0 0 0 0 0 0 0 0 0 0 0 0 0 0 0 0 0 127 0" result="hardAlpha"/>
<feOffset dx="15" dy="25"/>
<feGaussianBlur stdDeviation="10"/>
<feComposite in2="hardAlpha" operator="out"/>
<feColorMatrix type="matrix" values="0 0 0 0 0 0 0 0 0 0 0 0 0 0 0 0 0 0 0.25 0"/>
<feBlend mode="normal" in2="BackgroundImageFix" result="effect1_dropShadow_585_100"/>
<feBlend mode="normal" in="SourceGraphic" in2="effect1_dropShadow_585_100" result="shape"/>
</filter>
</defs>
</svg>
