<svg width="320" height="325" viewBox="0 0 320 325" fill="none" xmlns="http://www.w3.org/2000/svg">
<g filter="url(#filter0_d_774_276)">
<path d="M144.595 0C106.682 0 101.936 0.163652 87.0441 0.818259C72.1518 1.52742 62.0599 3.87309 53.1682 7.30978C44.0037 10.8556 36.2029 15.656 28.4022 23.4022C20.6015 31.1484 15.8556 38.9491 12.3098 48.1682C8.87309 57.0599 6.52742 67.2063 5.81826 82.0441C5.1091 96.9364 5 101.682 5 139.595C5 177.508 5.16365 182.254 5.81826 197.146C6.52742 211.984 8.87309 222.13 12.3098 231.022C15.8556 240.186 20.656 247.987 28.4022 255.788C36.1484 263.534 43.9491 268.334 53.1682 271.88C62.0599 275.317 72.2063 277.663 87.0441 278.372C101.936 279.081 106.682 279.19 144.595 279.19C182.508 279.19 187.254 279.026 202.146 278.372C216.984 277.663 227.13 275.317 236.022 271.88C245.186 268.334 252.987 263.534 260.788 255.788C268.534 248.042 273.334 240.241 276.88 231.022C280.317 222.13 282.663 211.984 283.372 197.146C284.081 182.254 284.19 177.508 284.19 139.595C284.19 101.682 284.026 96.9364 283.372 82.0441C282.663 67.2063 280.317 57.0599 276.88 48.1682C273.334 39.0037 268.534 31.2029 260.788 23.4022C253.042 15.656 245.241 10.8556 236.022 7.30978C227.13 3.87309 216.984 1.52742 202.146 0.818259C187.254 0.163652 182.508 0 144.595 0ZM144.595 25.1478C181.853 25.1478 186.326 25.3115 201.055 25.9661C214.693 26.6207 222.057 28.8573 226.966 30.8211C233.512 33.3304 238.149 36.3853 243.059 41.2403C247.914 46.1498 250.969 50.7866 253.478 57.3327C255.387 62.2422 257.678 69.6066 258.278 83.2442C258.933 97.9729 259.097 102.391 259.097 139.704C259.097 177.017 258.933 181.435 258.224 196.164C257.515 209.802 255.224 217.166 253.314 222.075C250.696 228.622 247.75 233.258 242.841 238.168C237.986 243.023 233.24 246.078 226.803 248.587C221.893 250.496 214.42 252.787 200.782 253.388C185.944 254.042 181.58 254.206 144.213 254.206C106.846 254.206 102.482 254.042 87.6442 253.333C74.0065 252.624 66.5331 250.333 61.6235 248.423C55.0229 245.805 50.4407 242.859 45.5856 237.95C40.6761 233.095 37.5667 228.349 35.1119 221.912C33.2027 217.002 30.9115 209.529 30.2024 195.891C29.6569 181.217 29.4932 176.689 29.4932 139.54C29.4932 102.337 29.6569 97.8092 30.2024 82.9715C30.9115 69.3338 33.1481 61.8604 35.1119 56.9508C37.5667 50.2957 40.6761 45.768 45.5856 40.8584C50.4407 36.0034 55.0229 32.8395 61.6235 30.3847C66.5331 28.4754 73.8429 26.1843 87.4805 25.4751C102.318 24.9296 106.682 24.766 144.049 24.766L144.595 25.1478ZM144.595 67.9155C104.991 67.9155 72.8609 100.046 72.8609 139.65C72.8609 179.253 104.991 211.384 144.595 211.384C184.199 211.384 216.329 179.253 216.329 139.65C216.329 100.046 184.199 67.9155 144.595 67.9155ZM144.595 186.181C118.902 186.181 98.0633 165.343 98.0633 139.65C98.0633 113.956 118.902 93.1179 144.595 93.1179C170.288 93.1179 191.127 113.956 191.127 139.65C191.127 165.343 170.288 186.181 144.595 186.181ZM235.913 65.1334C235.913 74.407 228.385 81.8805 219.166 81.8805C209.892 81.8805 202.419 74.3525 202.419 65.1334C202.419 55.9144 209.947 48.3864 219.166 48.3864C228.385 48.3318 235.913 55.8598 235.913 65.1334Z" fill="black"/>
</g>
<defs>
<filter id="filter0_d_774_276" x="0" y="0" width="319.19" height="324.19" filterUnits="userSpaceOnUse" color-interpolation-filters="sRGB">
<feFlood flood-opacity="0" result="BackgroundImageFix"/>
<feColorMatrix in="SourceAlpha" type="matrix" values="0 0 0 0 0 0 0 0 0 0 0 0 0 0 0 0 0 0 127 0" result="hardAlpha"/>
<feOffset dx="15" dy="25"/>
<feGaussianBlur stdDeviation="10"/>
<feComposite in2="hardAlpha" operator="out"/>
<feColorMatrix type="matrix" values="0 0 0 0 0 0 0 0 0 0 0 0 0 0 0 0 0 0 0.25 0"/>
<feBlend mode="normal" in2="BackgroundImageFix" result="effect1_dropShadow_774_276"/>
<feBlend mode="normal" in="SourceGraphic" in2="effect1_dropShadow_774_276" result="shape"/>
</filter>
</defs>
</svg>
