<svg width="800" height="800" viewBox="0 0 800 800" fill="none" xmlns="http://www.w3.org/2000/svg">
<circle cx="400" cy="400" r="400" fill="white"/>
<g filter="url(#filter0_d_774_275)">
<path fill-rule="evenodd" clip-rule="evenodd" d="M400 203C510.46 203 600 294.799 600 408.059C600 498.639 542.76 575.479 463.34 602.619C453.2 604.639 449.6 598.235 449.6 592.775C449.6 586.015 449.84 563.936 449.84 536.496C449.84 517.376 443.44 504.897 436.26 498.537C480.8 493.457 527.6 476.115 527.6 397.355C527.6 374.955 519.84 356.676 507 342.316C509.08 337.136 515.94 316.279 505.04 288.039C505.04 288.039 488.28 282.544 450.1 309.064C434.12 304.524 417 302.24 400 302.16C383 302.24 365.9 304.524 349.94 309.064C311.72 282.544 294.92 288.039 294.92 288.039C284.06 316.279 290.92 337.136 292.98 342.316C280.2 356.676 272.38 374.955 272.38 397.355C272.38 475.915 319.08 493.523 363.5 498.703C357.78 503.823 352.6 512.855 350.8 526.115C339.4 531.355 310.44 540.424 292.6 509.084C292.6 509.084 282.02 489.381 261.94 487.941C261.94 487.941 242.44 487.682 260.58 500.402C260.58 500.402 273.68 506.702 282.78 530.402C282.78 530.402 294.52 567.002 350.16 554.602C350.26 571.742 350.44 587.895 350.44 592.775C350.44 598.195 346.76 604.539 336.78 602.639C257.3 575.539 200 498.659 200 408.059C200 294.799 289.56 203 400 203Z" fill="black"/>
</g>
<defs>
<filter id="filter0_d_774_275" x="196" y="203" width="408" height="408" filterUnits="userSpaceOnUse" color-interpolation-filters="sRGB">
<feFlood flood-opacity="0" result="BackgroundImageFix"/>
<feColorMatrix in="SourceAlpha" type="matrix" values="0 0 0 0 0 0 0 0 0 0 0 0 0 0 0 0 0 0 127 0" result="hardAlpha"/>
<feOffset dy="4"/>
<feGaussianBlur stdDeviation="2"/>
<feComposite in2="hardAlpha" operator="out"/>
<feColorMatrix type="matrix" values="0 0 0 0 0 0 0 0 0 0 0 0 0 0 0 0 0 0 0.25 0"/>
<feBlend mode="normal" in2="BackgroundImageFix" result="effect1_dropShadow_774_275"/>
<feBlend mode="normal" in="SourceGraphic" in2="effect1_dropShadow_774_275" result="shape"/>
</filter>
</defs>
</svg>
